<svg width="1200" height="200" viewBox="0 0 1200 200" fill="none" xmlns="http://www.w3.org/2000/svg">
  <!-- Sol -->
  <circle cx="80" cy="120" r="50" fill="#ff9500" fill-opacity="0.3"/>
  <circle cx="80" cy="120" r="40" fill="#ff9500" fill-opacity="0.6"/>
  <circle cx="80" cy="120" r="28" fill="#ffb84d" fill-opacity="0.8"/>
  <!-- Raios -->
  <g stroke="#ff9500" stroke-width="3" stroke-opacity="0.4">
    <line x1="80" y1="40" x2="80" y2="0"/>
    <line x1="80" y1="200" x2="80" y2="160"/>
    <line x1="0" y1="120" x2="40" y2="120"/>
    <line x1="120" y1="120" x2="160" y2="120"/>
    <line x1="32" y1="72" x2="0" y2="40"/>
    <line x1="128" y1="72" x2="160" y2="40"/>
    <line x1="32" y1="168" x2="0" y2="200"/>
    <line x1="128" y1="168" x2="160" y2="200"/>
  </g>
  <!-- Placas solares -->
  <rect x="250" y="120" width="80" height="30" rx="6" fill="#1e90ff" fill-opacity="0.5" stroke="#fff" stroke-width="2"/>
  <rect x="350" y="130" width="90" height="25" rx="6" fill="#1e90ff" fill-opacity="0.5" stroke="#fff" stroke-width="2"/>
  <rect x="470" y="110" width="60" height="28" rx="6" fill="#1e90ff" fill-opacity="0.5" stroke="#fff" stroke-width="2"/>
  <rect x="560" y="140" width="100" height="28" rx="6" fill="#1e90ff" fill-opacity="0.5" stroke="#fff" stroke-width="2"/>
  <rect x="700" y="120" width="110" height="30" rx="6" fill="#1e90ff" fill-opacity="0.5" stroke="#fff" stroke-width="2"/>
  <rect x="850" y="130" width="90" height="25" rx="6" fill="#1e90ff" fill-opacity="0.5" stroke="#fff" stroke-width="2"/>
  <rect x="980" y="110" width="60" height="28" rx="6" fill="#1e90ff" fill-opacity="0.5" stroke="#fff" stroke-width="2"/>
  <rect x="1060" y="140" width="100" height="28" rx="6" fill="#1e90ff" fill-opacity="0.5" stroke="#fff" stroke-width="2"/>
</svg>


